<svg width="316.09999999999997px" height="120.8px" xmlns="http://www.w3.org/2000/svg" viewBox="91.95000000000002 14.600000000000001 316.09999999999997 120.8" style="background: rgba(0, 0, 0, 0);" preserveAspectRatio="xMidYMid"><defs><filter id="editing-extrude-glow"><feFlood flood-color="#333333" result="flood-1"></feFlood><feMorphology operator="erode" radius="1" in="SourceAlpha" result="erode"></feMorphology><feComposite operator="in" in="flood-1" in2="erode" result="comp1"></feComposite><feConvolveMatrix order="3,3" divisor="1" in="comp1" result="convolve" kernelMatrix="0 0 0 1 1 1 0 0 0"></feConvolveMatrix><feOffset dx="-3" dy="0" in="convolve" result="extrude"></feOffset><feComposite operator="in" in="flood-1" in2="extrude" result="comp-extrude"></feComposite><feFlood flood-color="#000000" result="flood-2"></feFlood><feComposite operator="in" in="flood-2" in2="SourceAlpha" result="comp2"></feComposite><feMorphology operator="dilate" radius="1" in="comp2" result="dilate"></feMorphology><feOffset dx="-4.5" dy="0" in="dilate" result="offset"></feOffset><feGaussianBlur in="offset" stdDeviation="5.8" result="blur"></feGaussianBlur><feComponentTransfer in="blur" result="shadow"><feFuncA type="linear" slope="0.8" intercept="-0.2"></feFuncA></feComponentTransfer><feMerge><feMergeNode in="shadow"></feMergeNode><feMergeNode in="comp-extrude"></feMergeNode><feMergeNode in="SourceGraphic"></feMergeNode></feMerge></filter></defs><g filter="url(#editing-extrude-glow)"><g transform="translate(142.73502284288406, 102.55000114440918)"><path d="M7.68 0L0.64 0L8.32-42.24L22.08-42.24L32.06-13.18L37.38-42.24L44.48-42.18L36.67 0L22.02 0L12.80-27.97L7.68 0ZM48.86-1.92L48.86-1.92L48.86-1.92Q47.36-3.58 46.69-6.21L46.69-6.21L46.69-6.21Q46.02-8.83 46.02-13.12L46.02-13.12L46.02-13.12Q46.02-17.41 47.49-21.31L47.49-21.31L47.49-21.31Q48.96-25.22 51.65-28.03L51.65-28.03L51.65-28.03Q57.15-33.92 66.24-33.92L66.24-33.92L66.24-33.92Q69.50-33.92 71.87-32.83L71.87-32.83L82.82-33.92L78.08-8.96L78.08-8.96Q77.89-8.19 77.89-6.78L77.89-6.78L77.89-6.78Q77.89-5.38 78.75-4.48L78.75-4.48L78.75-4.48Q79.62-3.58 80.90-3.46L80.90-3.46L80.90-3.46Q80.26-1.28 77.92 0L77.92 0L77.92 0Q75.58 1.28 72.96 1.28L72.96 1.28L72.96 1.28Q70.34 1.28 68.58 0.29L68.58 0.29L68.58 0.29Q66.82-0.70 66.30-2.37L66.30-2.37L66.30-2.37Q65.28-0.77 63.10 0.26L63.10 0.26L63.10 0.26Q60.93 1.28 58.02 1.28L58.02 1.28L58.02 1.28Q55.10 1.28 52.74 0.51L52.74 0.51L52.74 0.51Q50.37-0.26 48.86-1.92ZM62.37-27.90L62.37-27.90L62.37-27.90Q61.63-26.75 60.99-24.80L60.99-24.80L60.99-24.80Q60.35-22.85 59.30-17.63L59.30-17.63L59.30-17.63Q58.24-12.42 58.24-8.70L58.24-8.70L58.24-8.70Q58.24-4.99 58.82-3.90L58.82-3.90L58.82-3.90Q59.39-2.82 60.42-2.82L60.42-2.82L60.42-2.82Q62.46-2.82 63.97-4.77L63.97-4.77L63.97-4.77Q65.47-6.72 66.05-10.18L66.05-10.18L69.44-28.93L69.44-28.93Q68.10-30.08 66.53-30.08L66.53-30.08L66.53-30.08Q64.96-30.08 64.03-29.57L64.03-29.57L64.03-29.57Q63.10-29.06 62.37-27.90ZM106.62-7.23L106.62-7.23L106.62-7.23Q103.30-3.78 97.22-3.78L97.22-3.78L97.22-3.78Q89.60-3.78 88-9.34L88-9.34L88-9.34Q87.49-11.01 87.49-12.86L87.49-12.86L87.49-12.86Q87.49-14.72 87.87-16.64L87.87-16.64L90.88-32.64L103.87-33.92L100.35-15.30L100.35-15.30Q100.22-14.46 100.03-13.57L100.03-13.57L100.03-13.57Q99.84-12.67 99.84-11.74L99.84-11.74L99.84-11.74Q99.84-10.82 100.16-10.21L100.16-10.21L100.16-10.21Q100.48-9.60 100.93-9.22L100.93-9.22L100.93-9.22Q101.70-8.70 103.07-8.70L103.07-8.70L103.07-8.70Q104.45-8.70 105.63-10.37L105.63-10.37L105.63-10.37Q106.82-12.03 107.39-14.91L107.39-14.91L110.91-32.64L123.52-33.92L118.72-8.77L118.72-8.77Q116.35 3.52 111.49 8.38L111.49 8.38L111.49 8.38Q108.99 10.88 105.76 11.87L105.76 11.87L105.76 11.87Q102.53 12.86 98.37 12.86L98.37 12.86L98.37 12.86Q91.65 12.86 87.81 10.75L87.81 10.75L87.81 10.75Q83.97 8.64 83.97 5.12L83.97 5.12L83.97 5.12Q83.97 2.50 85.95 0.99L85.95 0.99L85.95 0.99Q87.94-0.51 91.01-0.51L91.01-0.51L91.01-0.51Q93.70-0.51 95.74 0.64L95.74 0.64L95.74 0.64Q96.96 1.34 97.54 2.24L97.54 2.24L97.54 2.24Q96.06 3.52 96.06 5.63L96.06 5.63L96.06 5.63Q96.06 8.45 98.62 8.45L98.62 8.45L98.62 8.45Q102.85 8.45 105.28-1.28L105.28-1.28L105.28-1.28Q105.98-4.16 106.62-7.23ZM151.74-10.82L151.74-10.82L151.74-10.82Q153.34-9.73 153.34-7.33L153.34-7.33L153.34-7.33Q153.34-4.93 152.13-3.39L152.13-3.39L152.13-3.39Q150.91-1.86 148.93-0.83L148.93-0.83L148.93-0.83Q144.83 1.28 140.42 1.28L140.42 1.28L140.42 1.28Q136 1.28 133.41 0.32L133.41 0.32L133.41 0.32Q130.82-0.64 129.09-2.43L129.09-2.43L129.09-2.43Q125.70-5.82 125.70-12.03L125.70-12.03L125.70-12.03Q125.70-21.70 130.94-27.58L130.94-27.58L130.94-27.58Q136.58-33.92 146.37-33.92L146.37-33.92L146.37-33.92Q152.45-33.92 155.46-31.36L155.46-31.36L155.46-31.36Q157.70-29.44 157.70-26.30L157.70-26.30L157.70-26.30Q157.70-15.04 138.24-15.04L138.24-15.04L138.24-15.04Q137.98-13.38 137.98-11.97L137.98-11.97L137.98-11.97Q137.98-9.02 139.30-7.90L139.30-7.90L139.30-7.90Q140.61-6.78 143.04-6.78L143.04-6.78L143.04-6.78Q145.47-6.78 148.06-7.90L148.06-7.90L148.06-7.90Q150.66-9.02 151.74-10.82ZM138.69-17.79L138.69-17.79L138.69-17.79Q143.23-17.79 145.86-20.61L145.86-20.61L145.86-20.61Q148.48-23.30 148.48-27.58L148.48-27.58L148.48-27.58Q148.48-29.06 147.94-29.86L147.94-29.86L147.94-29.86Q147.39-30.66 146.30-30.66L146.30-30.66L146.30-30.66Q145.22-30.66 144.29-30.24L144.29-30.24L144.29-30.24Q143.36-29.82 142.40-28.42L142.40-28.42L142.40-28.42Q140.03-25.22 138.69-17.79ZM205.95 1.28L205.95 1.28L205.95 1.28Q198.21 1.28 198.21-4.74L198.21-4.74L198.21-4.74Q198.21-7.36 199.33-12.45L199.33-12.45L199.33-12.45Q200.45-17.54 200.83-19.58L200.83-19.58L200.83-19.58Q201.73-24.26 201.73-25.73L201.73-25.73L201.73-25.73Q201.73-28.99 199.30-28.99L199.30-28.99L199.30-28.99Q197.70-28.99 196.16-26.78L196.16-26.78L196.16-26.78Q194.62-24.58 193.92-20.16L193.92-20.16L189.95 0L177.47 1.28L180.93-16.13L180.93-16.13Q181.50-19.01 182.02-22.27L182.02-22.27L182.02-22.27Q182.53-25.54 182.53-26.05L182.53-26.05L182.53-26.05Q182.53-28.99 180.35-28.99L180.35-28.99L180.35-28.99Q178.88-28.99 177.28-26.82L177.28-26.82L177.28-26.82Q175.68-24.64 174.78-20.16L174.78-20.16L170.88 0L158.27 1.28L164.99-32.64L175.42-33.92L174.34-27.46L174.34-27.46Q176-30.91 179.07-32.42L179.07-32.42L179.07-32.42Q182.14-33.92 186.94-33.92L186.94-33.92L186.94-33.92Q189.70-33.92 191.49-32.58L191.49-32.58L191.49-32.58Q193.28-31.23 193.86-29.06L193.86-29.06L193.86-29.06Q194.94-31.30 197.73-32.61L197.73-32.61L197.73-32.61Q200.51-33.92 203.94-33.92L203.94-33.92L203.94-33.92Q207.36-33.92 209.06-33.18L209.06-33.18L209.06-33.18Q210.75-32.45 211.78-31.23L211.78-31.23L211.78-31.23Q213.50-28.99 213.50-24.90L213.50-24.90L213.50-24.90Q213.50-20.86 211.78-12.48L211.78-12.48L211.78-12.48Q210.88-8.38 210.88-6.88L210.88-6.88L210.88-6.88Q210.88-5.38 211.74-4.48L211.74-4.48L211.74-4.48Q212.61-3.58 213.89-3.46L213.89-3.46L213.89-3.46Q213.25-1.28 211.04 0L211.04 0L211.04 0Q208.83 1.28 205.95 1.28Z" fill="#3d6cc6"></path></g></g><style>text {
  font-size: 64px;
  font-family: Arial Black;
  dominant-baseline: central;
  text-anchor: middle;
}</style></svg>